<svg xmlns="http://www.w3.org/2000/svg" width="24" height="24" viewBox="0 0 24 24" fill="none" aria-hidden="true">
  <path d="M22 16.92v3a2 2 0 0 1-2.18 2 19.86 19.86 0 0 1-8.63-3.07 19.5 19.5 0 0 1-6-6A19.86 19.86 0 0 1 2.09 4.18 2 2 0 0 1 4 2h3a2 2 0 0 1 2 1.72c.12.9.36 1.77.72 2.58a2 2 0 0 1-.45 2.11L9.91 9.91a14 14 0 0 0 6 6l1.5-1.5a2 2 0 0 1 2.11-.45c.81.36 1.68.6 2.58.72A2 2 0 0 1 22 16.92z" stroke="#9aa6af" stroke-width="1.5" stroke-linecap="round" stroke-linejoin="round" fill="none"/>
</svg>
